<svg xmlns="http://www.w3.org/2000/svg" xmlns:xlink="http://www.w3.org/1999/xlink" contentStyleType="text/css" height="813px" preserveAspectRatio="none" style="width:500px;height:813px;background:#FFFFFF;" version="1.1" viewBox="0 0 500 813" width="500px" zoomAndPan="magnify"><defs/><g><ellipse cx="190.42" cy="16" fill="#222222" rx="10" ry="10" style="stroke:#222222;stroke-width:1.0;"/><rect fill="#F1F1F1" height="40" rx="12.5" ry="12.5" style="stroke:#181818;stroke-width:0.5;" width="50" x="165.42" y="103"/><text fill="#000000" font-family="sans-serif" font-size="14" lengthAdjust="spacing" textLength="29.2852" x="175.7774" y="128.291">SCM</text><rect fill="#F1F1F1" height="40" rx="12.5" ry="12.5" style="stroke:#181818;stroke-width:0.5;" width="89.8574" x="145.49" y="220"/><text fill="#000000" font-family="sans-serif" font-size="14" lengthAdjust="spacing" textLength="79.8574" x="150.49" y="245.291">ServiceMain</text><rect fill="#F1F1F1" height="40" rx="12.5" ry="12.5" style="stroke:#181818;stroke-width:0.5;" width="182.8467" x="7" y="321"/><text fill="#000000" font-family="sans-serif" font-size="14" lengthAdjust="spacing" textLength="172.8467" x="12" y="346.291">SERVICE_START_PENDING</text><g id="InitInstance"><rect fill="#F1F1F1" height="135.418" rx="12.5" ry="12.5" style="stroke:#181818;stroke-width:0.5;" width="268.1152" x="44.37" y="438"/><line style="stroke:#181818;stroke-width:0.5;" x1="44.37" x2="312.4852" y1="464.4883" y2="464.4883"/><text fill="#000000" font-family="sans-serif" font-size="14" lengthAdjust="spacing" textLength="78.4902" x="139.1825" y="456.5352">InitInstance</text><text fill="#000000" font-family="sans-serif" font-size="12" lengthAdjust="spacing" textLength="215.6777" x="49.37" y="481.0898">(void by default, just returning TRUE)</text><text fill="#000000" font-family="sans-serif" font-size="12" lengthAdjust="spacing" textLength="3.7969" x="49.37" y="495.2227">&#160;</text><text fill="#000000" font-family="sans-serif" font-size="12" lengthAdjust="spacing" textLength="248.1152" x="49.37" y="509.3555">this is where command line arguments are</text><text fill="#000000" font-family="sans-serif" font-size="12" lengthAdjust="spacing" textLength="246.1582" x="49.37" y="523.4883">given last chance to be analyzed and used</text><text fill="#000000" font-family="sans-serif" font-size="12" lengthAdjust="spacing" textLength="3.7969" x="49.37" y="537.6211">&#160;</text><text fill="#000000" font-family="sans-serif" font-size="12" lengthAdjust="spacing" textLength="181.9922" x="49.37" y="551.7539">if initialization fails, the service</text><text fill="#000000" font-family="sans-serif" font-size="12" lengthAdjust="spacing" textLength="150.8086" x="49.37" y="565.8867">gets stopped immediately</text></g><rect fill="#F1F1F1" height="40" rx="12.5" ry="12.5" style="stroke:#181818;stroke-width:0.5;" width="132.2607" x="212.29" y="650.42"/><text fill="#000000" font-family="sans-serif" font-size="14" lengthAdjust="spacing" textLength="122.2607" x="217.29" y="675.711">SERVICE_STOPPED</text><rect fill="#F1F1F1" height="40" rx="12.5" ry="12.5" style="stroke:#181818;stroke-width:0.5;" width="135.1729" x="11.84" y="650.42"/><text fill="#000000" font-family="sans-serif" font-size="14" lengthAdjust="spacing" textLength="125.1729" x="16.84" y="675.711">SERVICE_RUNNING</text><rect fill="#F1F1F1" height="40" rx="12.5" ry="12.5" style="stroke:#181818;stroke-width:0.5;" width="124.1533" x="71.35" y="767.42"/><text fill="#000000" font-family="sans-serif" font-size="14" lengthAdjust="spacing" textLength="114.1533" x="76.35" y="792.711">SERVICE_PAUSED</text><ellipse cx="302.42" cy="787.42" fill="none" rx="11" ry="11" style="stroke:#222222;stroke-width:1.0;"/><ellipse cx="302.42" cy="787.42" fill="#222222" rx="6" ry="6" style="stroke:#222222;stroke-width:1.0;"/><!--link *start* to SCM--><g id="link_*start*_SCM"><path d="M190.42,26.32 C190.42,43.38 190.42,73.98 190.42,96.64 " fill="none" id="*start*-to-SCM" style="stroke:#181818;stroke-width:1.0;"/><polygon fill="#181818" points="190.42,102.64,194.42,93.64,190.42,97.64,186.42,93.64,190.42,102.64" style="stroke:#181818;stroke-width:1.0;"/><text fill="#000000" font-family="sans-serif" font-size="13" lengthAdjust="spacing" textLength="162.1572" x="191.42" y="69.5684">service dispatcher started</text></g><!--link SCM to ServiceMain--><g id="link_SCM_ServiceMain"><path d="M190.42,143.25 C190.42,164.48 190.42,192.44 190.42,213.69 " fill="none" id="SCM-to-ServiceMain" style="stroke:#181818;stroke-width:1.0;"/><polygon fill="#181818" points="190.42,219.69,194.42,210.69,190.42,214.69,186.42,210.69,190.42,219.69" style="stroke:#181818;stroke-width:1.0;"/><text fill="#000000" font-family="sans-serif" font-size="13" lengthAdjust="spacing" textLength="145.4312" x="191.42" y="186.5684">ServiceMain(argc, argv)</text></g><!--link ServiceMain to ServiceMain--><g id="link_ServiceMain_ServiceMain"><path d="M235.62,230.62 C254.42,229.97 270.35,233.1 270.35,240 C270.35,246.91 260.4165,250.2341 241.6165,249.5941 " fill="none" id="ServiceMain-to-ServiceMain" style="stroke:#181818;stroke-width:1.0;"/><polygon fill="#181818" points="235.62,249.39,244.4787,253.6939,240.6171,249.5601,244.7509,245.6985,235.62,249.39" style="stroke:#181818;stroke-width:1.0;"/><text fill="#000000" font-family="sans-serif" font-size="13" lengthAdjust="spacing" textLength="210.958" x="276.35" y="245.0684">SetControlsAccepted(dwControls)</text></g><!--link ServiceMain to SERVICE_START_PENDING--><g id="link_ServiceMain_SERVICE_START_PENDING"><path d="M172.68,260.09 C156.5,277.51 136.7754,298.7357 120.5054,316.2357 " fill="none" id="ServiceMain-to-SERVICE_START_PENDING" style="stroke:#181818;stroke-width:1.0;"/><polygon fill="#181818" points="116.42,320.63,125.4776,316.7622,119.8245,316.9681,119.6186,311.315,116.42,320.63" style="stroke:#181818;stroke-width:1.0;"/></g><!--link SERVICE_START_PENDING to InitInstance--><g id="link_SERVICE_START_PENDING_InitInstance"><path d="M81.88,361.48 C72.76,374.69 64.54,392.5 71.42,408 C76.15,418.64 78.8818,423.9735 86.4218,433.1535 " fill="none" id="SERVICE_START_PENDING-to-InitInstance" style="stroke:#181818;stroke-width:1.0;"/><polygon fill="#181818" points="90.23,437.79,87.6087,428.2964,87.0565,433.9262,81.4266,433.374,90.23,437.79" style="stroke:#181818;stroke-width:1.0;"/><text fill="#000000" font-family="sans-serif" font-size="13" lengthAdjust="spacing" textLength="183.4917" x="72.42" y="404.5684">this-&gt;InitInstance*(arc, argv)</text></g><!--link InitInstance to ServiceMain--><g id="link_InitInstance_ServiceMain"><path d="M244.9,437.7 C251.19,428.32 256.63,418.33 260.42,408 C280.35,353.7 239.4051,295.7093 212.5851,264.8393 " fill="none" id="InitInstance-to-ServiceMain" style="stroke:#181818;stroke-width:1.0;"/><polygon fill="#181818" points="208.65,260.31,211.5331,269.7274,211.9293,264.0844,217.5722,264.4806,208.65,260.31" style="stroke:#181818;stroke-width:1.0;"/><text fill="#000000" font-family="sans-serif" font-size="13" lengthAdjust="spacing" textLength="38.8794" x="264.42" y="346.0684">return</text></g><!--link InitInstance to SERVICE_STOPPED--><g id="link_InitInstance_SERVICE_STOPPED"><path d="M219.67,573.83 C236.57,601.32 251.699,625.9278 263.299,644.8078 " fill="none" id="InitInstance-to-SERVICE_STOPPED" style="stroke:#181818;stroke-width:1.0;"/><polygon fill="#181818" points="266.44,649.92,265.1367,640.1578,263.8225,645.6599,258.3204,644.3457,266.44,649.92" style="stroke:#181818;stroke-width:1.0;"/><text fill="#000000" font-family="sans-serif" font-size="13" lengthAdjust="spacing" textLength="36.918" x="246.42" y="616.9884">FALSE</text></g><!--link InitInstance to SERVICE_RUNNING--><g id="link_InitInstance_SERVICE_RUNNING"><path d="M137.58,573.83 C120.86,601.32 105.8873,625.9133 94.4073,644.7933 " fill="none" id="InitInstance-to-SERVICE_RUNNING" style="stroke:#181818;stroke-width:1.0;"/><polygon fill="#181818" points="91.29,649.92,99.3837,644.3082,93.8877,645.6478,92.5481,640.1518,91.29,649.92" style="stroke:#181818;stroke-width:1.0;"/><text fill="#000000" font-family="sans-serif" font-size="13" lengthAdjust="spacing" textLength="32.4937" x="118.42" y="616.9884">TRUE</text></g><!--link SERVICE_RUNNING to SERVICE_STOPPED--><g id="link_SERVICE_RUNNING_SERVICE_STOPPED"><path d="M147.48,688.85 C162.94,691.19 179.33,692.22 194.65,690.42 C200.29,689.76 200.2092,689.9367 206.0192,688.8667 " fill="none" id="SERVICE_RUNNING-to-SERVICE_STOPPED" style="stroke:#181818;stroke-width:1.0;"/><polygon fill="#181818" points="211.92,687.78,202.3444,685.4762,207.0027,688.6856,203.7933,693.3439,211.92,687.78" style="stroke:#181818;stroke-width:1.0;"/><text fill="#000000" font-family="sans-serif" font-size="13" lengthAdjust="spacing" textLength="28.0313" x="165.65" y="686.9884">Stop</text></g><!--link SERVICE_STOPPED to SERVICE_RUNNING--><g id="link_SERVICE_STOPPED_SERVICE_RUNNING"><path d="M211.81,670.42 C191.07,670.42 174.18,670.42 153.35,670.42 " fill="none" id="SERVICE_STOPPED-to-SERVICE_RUNNING" style="stroke:#181818;stroke-width:1.0;"/><polygon fill="#181818" points="147.35,670.42,156.35,674.42,152.35,670.42,156.35,666.42,147.35,670.42" style="stroke:#181818;stroke-width:1.0;"/><text fill="#000000" font-family="sans-serif" font-size="13" lengthAdjust="spacing" textLength="29.2246" x="165.15" y="663.9884">Start</text></g><!--link SERVICE_RUNNING to SERVICE_PAUSED--><g id="link_SERVICE_RUNNING_SERVICE_PAUSED"><path d="M62.36,690.78 C52.66,704.26 43.97,722.43 52.42,737.42 C59.53,750.02 66.1557,756.6955 78.5657,764.0355 " fill="none" id="SERVICE_RUNNING-to-SERVICE_PAUSED" style="stroke:#181818;stroke-width:1.0;"/><polygon fill="#181818" points="83.73,767.09,78.0198,759.0654,79.4264,764.5446,73.9472,765.9512,83.73,767.09" style="stroke:#181818;stroke-width:1.0;"/><text fill="#000000" font-family="sans-serif" font-size="13" lengthAdjust="spacing" textLength="36.3022" x="53.42" y="733.9884">Pause</text></g><!--link SERVICE_PAUSED to SERVICE_RUNNING--><g id="link_SERVICE_PAUSED_SERVICE_RUNNING"><path d="M124.36,767.11 C114.38,745.86 100.9805,717.3309 91.0105,696.1009 " fill="none" id="SERVICE_PAUSED-to-SERVICE_RUNNING" style="stroke:#181818;stroke-width:1.0;"/><polygon fill="#181818" points="88.46,690.67,88.6651,700.5167,90.5854,695.1958,95.9063,697.1161,88.46,690.67" style="stroke:#181818;stroke-width:1.0;"/><text fill="#000000" font-family="sans-serif" font-size="13" lengthAdjust="spacing" textLength="57.0464" x="111.42" y="733.9884">Continue</text></g><!--link SERVICE_PAUSED to SERVICE_STOPPED--><g id="link_SERVICE_PAUSED_SERVICE_STOPPED"><path d="M157.77,767.11 C184.57,745.86 222.6896,715.6291 249.4496,694.3991 " fill="none" id="SERVICE_PAUSED-to-SERVICE_STOPPED" style="stroke:#181818;stroke-width:1.0;"/><polygon fill="#181818" points="254.15,690.67,244.6133,693.13,250.233,693.7776,249.5854,699.3972,254.15,690.67" style="stroke:#181818;stroke-width:1.0;"/><text fill="#000000" font-family="sans-serif" font-size="13" lengthAdjust="spacing" textLength="28.0313" x="215.42" y="733.9884">Stop</text></g><!--link SERVICE_STOPPED to *end*--><g id="link_SERVICE_STOPPED_*end*"><path d="M282.44,690.67 C287.59,715.35 295.1043,751.3665 299.0943,770.4865 " fill="none" id="SERVICE_STOPPED-to-*end*" style="stroke:#181818;stroke-width:1.0;"/><polygon fill="#181818" points="300.32,776.36,302.3971,766.7327,299.2986,771.4654,294.5658,768.3669,300.32,776.36" style="stroke:#181818;stroke-width:1.0;"/><text fill="#000000" font-family="sans-serif" font-size="13" lengthAdjust="spacing" textLength="169.146" x="292.42" y="733.9884">service dispatcher stopped</text></g><!--SRC=[ZLFRQi9047tVhvX75Vs1F0X1qo9K6nBjIrlAkZlgb6GJiXj5lxwpQPKG8nH2o9wSCtFciWVI29YNxWmQhQgeT5GO8Tv7dp2PJ26TBI40YzMH588cMqgd3bY1TR9og8KdDCHVobAIOK7hD93LNes1tyUXQBDwH6vM65SLcGsLmfB33_Jf2dN4NXqbRujPz9MkmsJz5KUh-MBrB7hHXhymv1Q6ZHk50RW3sScqZOtOwirf-qTFWHMwkZ8zh5lsrpYEviny2b_Iw34nsQnMtc00wsJJuGKmE1QaOUk7ivDrviRmNLltbvtClX4DFqnNvui3VauyAWHLvBaq6Z8owCkhSpJEyXTsTNiwee5CSWvrQ31Nm9P5HcRd2shmOMgB-ZubxO0O8PdHHVebWfsap8xP2ruNw2uTiWthYhBaq9Jdg4awpCv2TDlJszgKbQ8Bz_OszTjw7xJ5ZSDDsWID9TSdEd3_nFngagdlsVytorH_rHvSiQOnuWS0]--></g></svg>