<svg xmlns="http://www.w3.org/2000/svg" xmlns:xlink="http://www.w3.org/1999/xlink" contentStyleType="text/css" height="981px" preserveAspectRatio="none" style="width:618px;height:981px;background:#FFFFFF;" version="1.1" viewBox="0 0 618 981" width="618px" zoomAndPan="magnify"><defs/><g><!--cluster ServiceMain--><g id="cluster_ServiceMain"><path d="M87.58,147 L427.58,147 A12.5,12.5 0 0 1 440.08,159.5 L440.08,168.4883 L75.08,168.4883 L75.08,159.5 A12.5,12.5 0 0 1 87.58,147 " fill="#F1F1F1" style="stroke:#F1F1F1;stroke-width:1.0;"/><rect fill="none" height="517.42" rx="12.5" ry="12.5" style="stroke:#181818;stroke-width:0.5;" width="365" x="75.08" y="147"/><line style="stroke:#181818;stroke-width:0.5;" x1="75.08" x2="440.08" y1="168.4883" y2="168.4883"/><text fill="#000000" font-family="sans-serif" font-size="14" lengthAdjust="spacing" textLength="79.8574" x="218.08" y="164.5352">ServiceMain</text></g><ellipse cx="134.08" cy="200" fill="#222222" rx="10" ry="10" style="stroke:#222222;stroke-width:1.0;"/><rect fill="#F1F1F1" height="40" rx="12.5" ry="12.5" style="stroke:#181818;stroke-width:0.5;" width="88.2988" x="121.93" y="287"/><text fill="#000000" font-family="sans-serif" font-size="14" lengthAdjust="spacing" textLength="78.2988" x="126.93" y="312.291">SetControls</text><rect fill="#F1F1F1" height="40" rx="12.5" ry="12.5" style="stroke:#181818;stroke-width:0.5;" width="182.8467" x="112.65" y="388"/><text fill="#000000" font-family="sans-serif" font-size="14" lengthAdjust="spacing" textLength="172.8467" x="117.65" y="413.291">SERVICE_START_PENDING</text><g id="ServiceMain.InitInstance"><rect fill="#FFD700" height="135.418" rx="12.5" ry="12.5" style="stroke:#181818;stroke-width:0.5;" width="268.1152" x="99.02" y="505"/><line style="stroke:#181818;stroke-width:0.5;" x1="99.02" x2="367.1352" y1="531.4883" y2="531.4883"/><text fill="#000000" font-family="sans-serif" font-size="14" lengthAdjust="spacing" textLength="78.4902" x="193.8325" y="523.5352">InitInstance</text><text fill="#000000" font-family="sans-serif" font-size="12" lengthAdjust="spacing" textLength="215.6777" x="104.02" y="548.0898">(void by default, just returning TRUE)</text><text fill="#000000" font-family="sans-serif" font-size="12" lengthAdjust="spacing" textLength="3.7969" x="104.02" y="562.2227">&#160;</text><text fill="#000000" font-family="sans-serif" font-size="12" lengthAdjust="spacing" textLength="248.1152" x="104.02" y="576.3555">this is where command line arguments are</text><text fill="#000000" font-family="sans-serif" font-size="12" lengthAdjust="spacing" textLength="246.1582" x="104.02" y="590.4883">given last chance to be analyzed and used</text><text fill="#000000" font-family="sans-serif" font-size="12" lengthAdjust="spacing" textLength="3.7969" x="104.02" y="604.6211">&#160;</text><text fill="#000000" font-family="sans-serif" font-size="12" lengthAdjust="spacing" textLength="181.9922" x="104.02" y="618.7539">if initialization fails, the service</text><text fill="#000000" font-family="sans-serif" font-size="12" lengthAdjust="spacing" textLength="150.8086" x="104.02" y="632.8867">gets stopped immediately</text></g><ellipse cx="430.08" cy="16" fill="#222222" rx="10" ry="10" style="stroke:#222222;stroke-width:1.0;"/><rect fill="#FFD700" height="40" rx="12.5" ry="12.5" style="stroke:#181818;stroke-width:0.5;" width="135.1729" x="68.49" y="735.42"/><text fill="#000000" font-family="sans-serif" font-size="14" lengthAdjust="spacing" textLength="125.1729" x="73.49" y="760.711">SERVICE_RUNNING</text><rect fill="#FFD700" height="40" rx="12.5" ry="12.5" style="stroke:#181818;stroke-width:0.5;" width="132.2607" x="195.95" y="852.42"/><text fill="#000000" font-family="sans-serif" font-size="14" lengthAdjust="spacing" textLength="122.2607" x="200.95" y="877.711">SERVICE_STOPPED</text><ellipse cx="262.08" cy="964.42" fill="none" rx="11" ry="11" style="stroke:#222222;stroke-width:1.0;"/><ellipse cx="262.08" cy="964.42" fill="#222222" rx="6" ry="6" style="stroke:#222222;stroke-width:1.0;"/><rect fill="#FFD700" height="40" rx="12.5" ry="12.5" style="stroke:#181818;stroke-width:0.5;" width="124.1533" x="7" y="852.42"/><text fill="#000000" font-family="sans-serif" font-size="14" lengthAdjust="spacing" textLength="114.1533" x="12" y="877.711">SERVICE_PAUSED</text><!--link *start* to ServiceMain--><g id="link_*start*_ServiceMain"><path d="M430.08,26.28 C430.08,43.955 430.08,84.01 430.08,121.1 C430.08,125.7363 430.08,130.3262 430.08,134.8203 C430.08,137.0673 430.08,139.2904 430.08,141.4833 C430.08,142.5798 430.08,143.6687 430.08,144.7494 C430.08,145.2897 430.08,139.8279 430.08,140.364 " fill="none" id="*start*-to-ServiceMain" style="stroke:#181818;stroke-width:1.0;"/><polygon fill="#181818" points="430.08,146.364,434.08,137.364,430.08,141.364,426.08,137.364,430.08,146.364" style="stroke:#181818;stroke-width:1.0;"/><text fill="#000000" font-family="sans-serif" font-size="13" lengthAdjust="spacing" textLength="145.4312" x="450.3788" y="69.5684">ServiceMain(argc, argv)</text><path d="M435.08,78.3105 L435.08,118.3105 L611.08,118.3105 L611.08,88.3105 L601.08,78.3105 L435.08,78.3105 " fill="#FEFFDD" style="stroke:#181818;stroke-width:0.5;"/><path d="M601.08,78.3105 L601.08,88.3105 L611.08,88.3105 L601.08,78.3105 " fill="#FEFFDD" style="stroke:#181818;stroke-width:0.5;"/><text fill="#000000" font-family="sans-serif" font-size="13" lengthAdjust="spacing" textLength="155.0288" x="441.08" y="95.8789">called by SCM on service</text><text fill="#000000" font-family="sans-serif" font-size="13" lengthAdjust="spacing" textLength="121.8369" x="441.08" y="111.1895">dispatching started</text></g><!--link *start*ServiceMain to SetControls--><g id="link_*start*ServiceMain_SetControls"><path d="M136.8,209.95 C141.97,226.92 151.5512,258.3305 158.5012,281.1405 " fill="none" id="*start*ServiceMain-to-SetControls" style="stroke:#181818;stroke-width:1.0;"/><polygon fill="#181818" points="160.25,286.88,161.4532,277.1049,158.7927,282.0971,153.8005,279.4366,160.25,286.88" style="stroke:#181818;stroke-width:1.0;"/><text fill="#000000" font-family="sans-serif" font-size="13" lengthAdjust="spacing" textLength="268.9565" x="151.08" y="253.5684">SetControlsAccepted(dwControlsAccepted)</text></g><!--link SetControls to SERVICE_START_PENDING--><g id="link_SetControls_SERVICE_START_PENDING"><path d="M173.4,327.09 C180.09,344.51 187.7691,364.5288 194.4891,382.0288 " fill="none" id="SetControls-to-SERVICE_START_PENDING" style="stroke:#181818;stroke-width:1.0;"/><polygon fill="#181818" points="196.64,387.63,197.1478,377.7942,194.8476,382.9623,189.6795,380.6621,196.64,387.63" style="stroke:#181818;stroke-width:1.0;"/></g><!--link SERVICE_START_PENDING to InitInstance--><g id="link_SERVICE_START_PENDING_InitInstance"><path d="M207.52,428.31 C210.88,447.16 215.1376,471.063 220.0476,498.623 " fill="none" id="SERVICE_START_PENDING-to-InitInstance" style="stroke:#181818;stroke-width:1.0;"/><polygon fill="#181818" points="221.1,504.53,223.4594,494.9679,220.223,499.6075,215.5835,496.3711,221.1,504.53" style="stroke:#181818;stroke-width:1.0;"/><text fill="#000000" font-family="sans-serif" font-size="13" lengthAdjust="spacing" textLength="183.4917" x="216.08" y="471.5684">this-&gt;InitInstance*(arc, argv)</text></g><!--link InitInstance to SERVICE_RUNNING--><g id="link_InitInstance_SERVICE_RUNNING"><path d="M197.1,640.74 C178.98,674.49 161.1969,707.613 149.1669,730.033 " fill="none" id="InitInstance-to-SERVICE_RUNNING" style="stroke:#181818;stroke-width:1.0;"/><polygon fill="#181818" points="146.33,735.32,154.1099,729.2808,148.6941,730.9142,147.0606,725.4983,146.33,735.32" style="stroke:#181818;stroke-width:1.0;"/><text fill="#000000" font-family="sans-serif" font-size="13" lengthAdjust="spacing" textLength="32.4937" x="171.08" y="701.9884">TRUE</text></g><!--link InitInstance to SERVICE_STOPPED--><g id="link_InitInstance_SERVICE_STOPPED"><path d="M239.62,640.89 C246.25,708.98 255.5182,804.1083 259.6082,846.0883 " fill="none" id="InitInstance-to-SERVICE_STOPPED" style="stroke:#181818;stroke-width:1.0;"/><polygon fill="#181818" points="260.19,852.06,263.2984,842.7145,259.7052,847.0836,255.3361,843.4903,260.19,852.06" style="stroke:#181818;stroke-width:1.0;"/><text fill="#000000" font-family="sans-serif" font-size="13" lengthAdjust="spacing" textLength="36.918" x="253.08" y="760.4884">FALSE</text></g><!--link SERVICE_STOPPED to *end*--><g id="link_SERVICE_STOPPED_*end*"><path d="M262.08,892.51 C262.08,911.08 262.08,932.59 262.08,947.29 " fill="none" id="SERVICE_STOPPED-to-*end*" style="stroke:#181818;stroke-width:1.0;"/><polygon fill="#181818" points="262.08,953.29,266.08,944.29,262.08,948.29,258.08,944.29,262.08,953.29" style="stroke:#181818;stroke-width:1.0;"/></g><!--link SERVICE_RUNNING to SERVICE_STOPPED--><g id="link_SERVICE_RUNNING_SERVICE_STOPPED"><path d="M157.17,775.67 C180.43,796.9 213.1977,826.8159 236.4877,848.0659 " fill="none" id="SERVICE_RUNNING-to-SERVICE_STOPPED" style="stroke:#181818;stroke-width:1.0;"/><polygon fill="#181818" points="240.92,852.11,236.9676,843.089,237.2264,848.7399,231.5755,848.9988,240.92,852.11" style="stroke:#181818;stroke-width:1.0;"/><text fill="#000000" font-family="sans-serif" font-size="13" lengthAdjust="spacing" textLength="28.0313" x="207.08" y="818.9884">Stop</text></g><!--link SERVICE_RUNNING to SERVICE_PAUSED--><g id="link_SERVICE_RUNNING_SERVICE_PAUSED"><path d="M80.36,775.91 C67.55,783.13 55.52,792.76 48.08,805.42 C39.55,819.93 43.5563,833.1571 51.7163,846.8371 " fill="none" id="SERVICE_RUNNING-to-SERVICE_PAUSED" style="stroke:#181818;stroke-width:1.0;"/><polygon fill="#181818" points="54.79,851.99,53.6148,842.2115,52.2286,847.6959,46.7442,846.3097,54.79,851.99" style="stroke:#181818;stroke-width:1.0;"/><text fill="#000000" font-family="sans-serif" font-size="13" lengthAdjust="spacing" textLength="36.3022" x="49.08" y="818.9884">Pause</text></g><!--link SERVICE_PAUSED to SERVICE_RUNNING--><g id="link_SERVICE_PAUSED_SERVICE_RUNNING"><path d="M80.33,852.11 C92.71,830.86 109.4694,802.0842 121.8394,780.8542 " fill="none" id="SERVICE_PAUSED-to-SERVICE_RUNNING" style="stroke:#181818;stroke-width:1.0;"/><polygon fill="#181818" points="124.86,775.67,116.8729,781.4325,122.3428,779.9901,123.7852,785.46,124.86,775.67" style="stroke:#181818;stroke-width:1.0;"/><text fill="#000000" font-family="sans-serif" font-size="13" lengthAdjust="spacing" textLength="57.0464" x="107.08" y="818.9884">Continue</text></g><!--link SERVICE_PAUSED to SERVICE_STOPPED--><g id="link_SERVICE_PAUSED_SERVICE_STOPPED"><path d="M131.47,872.42 C151.96,872.42 168.79,872.42 189.57,872.42 " fill="none" id="SERVICE_PAUSED-to-SERVICE_STOPPED" style="stroke:#181818;stroke-width:1.0;"/><polygon fill="#181818" points="195.57,872.42,186.57,868.42,190.57,872.42,186.57,876.42,195.57,872.42" style="stroke:#181818;stroke-width:1.0;"/><text fill="#000000" font-family="sans-serif" font-size="13" lengthAdjust="spacing" textLength="28.0313" x="149.55" y="865.9884">Stop</text></g><!--SRC=[VLF1Zjem4BtxAqRg1H3y00SanAPLf2wD2FJIhP3N7iYqZXt53eYj-kyx3eM6G2j5KVnctfldcKb16W7BAfn0erSrLO6S5UBRw3jC9ZF8iJwGmcT95gRTqq3MUpK6VX-6GbWN49m5G_Qd053I6DJmUe9yyHnnVoPoI9ElP505sJtu8Ek0Mg3L41M4O8I5kaL_2IRzTHCMpeRQ6T-wkPxcIc75KWDzx4D3vdTvhKwo-fekacs-dg_MsonPFgNBJp7l4TuoKaiXjMpFAfn2ACXFPbrinFsujWFWV8zk0dpOEwF5Ro5kqAwRrMQvZFMci5vjajkyAGmEZjgMQjp9neGn_6XyW1f3KzlOpKWQljW-Bte5Veu5rWZAbQNaTlEWCBfjIhJ1ynVsUNiw80zKSWrLj5XmyCeaAytfZQSRPHgF-huaxO0O8MdeJSPzWfqauyVi1Q-hq2-7RCC7LrKiJMM9chY5vlIVVkNhBrcMF37vu_npdeW-7dDvSqI_lmybSYvzdzb9pUQRlCtC9DzQzE37SunBHxQvp_wdWyiVq9CwByzjx8_MmzX5zHnx1m00]--></g></svg>